<svg width="18" height="11" viewBox="0 0 18 11" xmlns="http://www.w3.org/2000/svg" xmlns:xlink="http://www.w3.org/1999/xlink"><title>icon/product/nanodegree copy 4</title><defs><path d="M11.674 9.429h4.27l-3.938-7.072L9.87 6.276l1.805 3.153zm-.967-7.858H7.293L9 4.702l1.707-3.13zM12 0c.251 0 .503.13.647.39l5.25 9.428c.291.524-.07 1.182-.648 1.182h-6a.744.744 0 0 1-.642-.381L9 7.813l-1.607 2.806A.744.744 0 0 1 6.75 11H.751c-.579 0-.94-.658-.648-1.182L5.353.39A.737.737 0 0 1 6 0H12zM2.057 9.429h4.269L8.13 6.276 5.994 2.357 2.057 9.43z" id="a"/></defs><g fill="none" fill-rule="evenodd"><use fill="#02B3E4" fill-rule="nonzero" xlink:href="#a"/></g></svg>